# xmcd CD database file
#
# Track frame offsets:
#	150
#	952
#	13800
#	17075
#	28430
#	29642
#	53025
#	73372
#	98517
#	134545
#	171885
#	224020
#	250575
#	286205
#
# Disc length: 4119 seconds
#
# Revision: 3
# Processed by: cddbd v1.5.1PL0 Copyright (c) Steve Scherf et al.
# Submitted via: CDex 1.51
#
DISCID=c710150e
DTITLE=Freddie King - Live At The Electric Ballroom,1974
DYEAR=1900
DGENRE=Blues
TTITLE0=Introduction
TTITLE1=That's Alright (Solo Acoustic)
TTITLE2=Interview
TTITLE3=Dust My Broom (Solo Acoustic)
TTITLE4=Interview
TTITLE5=Big Legged Woman
TTITLE6=Woman Across The River
TTITLE7=Key To The Highway
TTITLE8=Let The Good Times Roll
TTITLE9=Ain't Nobody's Business
TTITLE10=Sweet Home Chicago
TTITLE11=Dust My Broom
TTITLE12=Hide Away Medley
TTITLE13=Interview
EXTD=Black Top CD BT-1127
EXTT0=
EXTT1=
EXTT2=
EXTT3=
EXTT4=
EXTT5=
EXTT6=
EXTT7=
EXTT8=
EXTT9=
EXTT10=
EXTT11=
EXTT12=
EXTT13=
PLAYORDER=
